[b][color=black]The.Vampire.Diaries.S03E12.HDTV [H264] [MPEG-4]-Sebastian[Ub3r]

Format                           : MPEG-4
Format profile                   : Base Media / Version 2
Codec ID                         : mp42
File size                        : 149 MiB
Duration                         : 41mn 50s
Overall bit rate                 : 498 Kbps
Encoded date                     : UTC 2012-09-17 17:26:09
Tagged date                      : UTC 2012-09-17 17:34:45

Video
ID                               : 1
Format                           : AVC
Format/Info                      : Advanced Video Codec
Format profile                   : Main@L3.0
Format settings, CABAC           : Yes
Format settings, ReFrames        : 4 frames
Codec ID                         : avc1
Codec ID/Info                    : Advanced Video Coding
Duration                         : 41mn 50s
Bit rate mode                    : Variable
Bit rate                         : 365 Kbps
Width                            : 624 pixels
Height                           : 352 pixels
Display aspect ratio             : 16:9
Frame rate mode                  : Variable
Frame rate                       : 23.976 fps
Minimum frame rate               : 23.974 fps
Maximum frame rate               : 23.981 fps
Color space                      : YUV
Chroma subsampling               : 4:2:0
Bit depth                        : 8 bits
Scan type                        : Progressive
Bits/(Pixel*Frame)               : 0.069
Stream size                      : 109 MiB (73%)
Writing library                  : x264 core 120
Encoded date                     : UTC 2012-09-17 17:26:09
Tagged date                      : UTC 2012-09-17 17:34:43

Audio
ID                               : 2
Format                           : AAC
Format/Info                      : Advanced Audio Codec
Format profile                   : LC
Codec ID                         : 40
Duration                         : 41mn 50s
Bit rate mode                    : Variable
Bit rate                         : 128 Kbps
Maximum bit rate                 : 181 Kbps
Channel(s)                       : 2 channels
Channel positions                : Front: L R
Sampling rate                    : 48.0 KHz
Compression mode                 : Lossy
Stream size                      : 38.3 MiB (26%)
Encoded date                     : UTC 2012-09-17 17:26:09
Tagged date                      : UTC 2012-09-17 17:34:42

Snapshot[/color][/b]
[img]http://imageshack.us/a/img802/8753/thevampirediariess03e12.jpg[/img]

[img]http://kastatic.com/i2/users/133df62bbf28e62494bb17fe11078f1a.gif[/img][img]http://kastatic.com/i2/users/133df62bbf28e62494bb17fe11078f1a.gif[/img]
